<svg height="512px" viewBox="0 0 512 512" width="512px" xmlns="http://www.w3.org/2000/svg">
  <g>
    <path d="M371.125,277.921c-0.182-33.401,14.927-58.611,45.505-77.177c-17.109-24.48-42.956-37.95-77.083-40.589c-32.309-2.548-67.621,18.839-80.543,18.839c-13.652,0-44.959-17.929-69.531-17.929c-50.783,0.819-104.752,40.499-104.752,121.226c0,23.844,4.369,48.507,13.106,73.897c11.648,33.399,53.694,115.311,97.56,113.944c22.936-0.546,39.136-16.292,68.986-16.292c28.94,0,43.957,16.292,69.53,16.292c44.231-0.639,82.273-75.082,93.376-108.575C367.94,333.619,371.125,279.651,371.125,277.921z" style="fill:none;stroke:#000000;stroke-width:30;stroke-linecap:round;stroke-linejoin:round;"/>
    <path d="M319.615,107.833c24.846-29.487,22.571-56.334,21.842-65.981c-21.932,1.274-47.325,14.926-61.795,31.761c-15.927,18.021-25.301,40.318-23.298,65.436C280.117,140.869,301.777,128.674,319.615,107.833z" style="fill:none;stroke:#000000;stroke-width:30;stroke-linecap:round;stroke-linejoin:round;"/>
  </g>
</svg>
